<svg xmlns="http://www.w3.org/2000/svg" viewBox="0 0 500 500" width="500" height="500">
  <defs>
    <clipPath id="circle-clip">
      <circle cx="250" cy="250" r="248"/>
    </clipPath>
  </defs>
  <g clip-path="url(#circle-clip)">
    <!-- Dark background -->
    <rect width="500" height="500" fill="#0f172a"/>
    <!-- Element tiles -->
  <rect x="44" y="145" width="22" height="22" rx="3" fill="#0284c7"/>
  <rect x="435" y="145" width="22" height="22" rx="3" fill="#db2777"/>
  <rect x="44" y="168" width="22" height="22" rx="3" fill="#e03030"/>
  <rect x="67" y="168" width="22" height="22" rx="3" fill="#f97316"/>
  <rect x="320" y="168" width="22" height="22" rx="3" fill="#7c3aed"/>
  <rect x="343" y="168" width="22" height="22" rx="3" fill="#0284c7"/>
  <rect x="366" y="168" width="22" height="22" rx="3" fill="#0284c7"/>
  <rect x="389" y="168" width="22" height="22" rx="3" fill="#0284c7"/>
  <rect x="412" y="168" width="22" height="22" rx="3" fill="#0284c7"/>
  <rect x="435" y="168" width="22" height="22" rx="3" fill="#db2777"/>
  <rect x="44" y="191" width="22" height="22" rx="3" fill="#e03030"/>
  <rect x="67" y="191" width="22" height="22" rx="3" fill="#f97316"/>
  <rect x="320" y="191" width="22" height="22" rx="3" fill="#059669"/>
  <rect x="343" y="191" width="22" height="22" rx="3" fill="#7c3aed"/>
  <rect x="366" y="191" width="22" height="22" rx="3" fill="#0284c7"/>
  <rect x="389" y="191" width="22" height="22" rx="3" fill="#0284c7"/>
  <rect x="412" y="191" width="22" height="22" rx="3" fill="#0284c7"/>
  <rect x="435" y="191" width="22" height="22" rx="3" fill="#db2777"/>
  <rect x="44" y="214" width="22" height="22" rx="3" fill="#e03030"/>
  <rect x="67" y="214" width="22" height="22" rx="3" fill="#f97316"/>
  <rect x="90" y="214" width="22" height="22" rx="3" fill="#2563eb"/>
  <rect x="113" y="214" width="22" height="22" rx="3" fill="#2563eb"/>
  <rect x="136" y="214" width="22" height="22" rx="3" fill="#2563eb"/>
  <rect x="159" y="214" width="22" height="22" rx="3" fill="#2563eb"/>
  <rect x="182" y="214" width="22" height="22" rx="3" fill="#2563eb"/>
  <rect x="205" y="214" width="22" height="22" rx="3" fill="#2563eb"/>
  <rect x="228" y="214" width="22" height="22" rx="3" fill="#2563eb"/>
  <rect x="251" y="214" width="22" height="22" rx="3" fill="#2563eb"/>
  <rect x="274" y="214" width="22" height="22" rx="3" fill="#2563eb"/>
  <rect x="297" y="214" width="22" height="22" rx="3" fill="#2563eb"/>
  <rect x="320" y="214" width="22" height="22" rx="3" fill="#059669"/>
  <rect x="343" y="214" width="22" height="22" rx="3" fill="#7c3aed"/>
  <rect x="366" y="214" width="22" height="22" rx="3" fill="#7c3aed"/>
  <rect x="389" y="214" width="22" height="22" rx="3" fill="#0284c7"/>
  <rect x="412" y="214" width="22" height="22" rx="3" fill="#0284c7"/>
  <rect x="435" y="214" width="22" height="22" rx="3" fill="#db2777"/>
  <rect x="44" y="237" width="22" height="22" rx="3" fill="#e03030"/>
  <rect x="67" y="237" width="22" height="22" rx="3" fill="#f97316"/>
  <rect x="90" y="237" width="22" height="22" rx="3" fill="#2563eb"/>
  <rect x="113" y="237" width="22" height="22" rx="3" fill="#2563eb"/>
  <rect x="136" y="237" width="22" height="22" rx="3" fill="#2563eb"/>
  <rect x="159" y="237" width="22" height="22" rx="3" fill="#2563eb"/>
  <rect x="182" y="237" width="22" height="22" rx="3" fill="#2563eb"/>
  <rect x="205" y="237" width="22" height="22" rx="3" fill="#2563eb"/>
  <rect x="228" y="237" width="22" height="22" rx="3" fill="#2563eb"/>
  <rect x="251" y="237" width="22" height="22" rx="3" fill="#2563eb"/>
  <rect x="274" y="237" width="22" height="22" rx="3" fill="#2563eb"/>
  <rect x="297" y="237" width="22" height="22" rx="3" fill="#2563eb"/>
  <rect x="320" y="237" width="22" height="22" rx="3" fill="#059669"/>
  <rect x="343" y="237" width="22" height="22" rx="3" fill="#059669"/>
  <rect x="366" y="237" width="22" height="22" rx="3" fill="#7c3aed"/>
  <rect x="389" y="237" width="22" height="22" rx="3" fill="#7c3aed"/>
  <rect x="412" y="237" width="22" height="22" rx="3" fill="#0284c7"/>
  <rect x="435" y="237" width="22" height="22" rx="3" fill="#db2777"/>
  <rect x="44" y="260" width="22" height="22" rx="3" fill="#e03030"/>
  <rect x="67" y="260" width="22" height="22" rx="3" fill="#f97316"/>
  <rect x="90" y="260" width="22" height="22" rx="3" fill="#4338ca"/>
  <rect x="113" y="260" width="22" height="22" rx="3" fill="#2563eb"/>
  <rect x="136" y="260" width="22" height="22" rx="3" fill="#2563eb"/>
  <rect x="159" y="260" width="22" height="22" rx="3" fill="#2563eb"/>
  <rect x="182" y="260" width="22" height="22" rx="3" fill="#2563eb"/>
  <rect x="205" y="260" width="22" height="22" rx="3" fill="#2563eb"/>
  <rect x="228" y="260" width="22" height="22" rx="3" fill="#2563eb"/>
  <rect x="251" y="260" width="22" height="22" rx="3" fill="#2563eb"/>
  <rect x="274" y="260" width="22" height="22" rx="3" fill="#2563eb"/>
  <rect x="297" y="260" width="22" height="22" rx="3" fill="#2563eb"/>
  <rect x="320" y="260" width="22" height="22" rx="3" fill="#059669"/>
  <rect x="343" y="260" width="22" height="22" rx="3" fill="#059669"/>
  <rect x="366" y="260" width="22" height="22" rx="3" fill="#059669"/>
  <rect x="389" y="260" width="22" height="22" rx="3" fill="#059669"/>
  <rect x="412" y="260" width="22" height="22" rx="3" fill="#0284c7"/>
  <rect x="435" y="260" width="22" height="22" rx="3" fill="#db2777"/>
  <rect x="44" y="283" width="22" height="22" rx="3" fill="#e03030"/>
  <rect x="67" y="283" width="22" height="22" rx="3" fill="#f97316"/>
  <rect x="90" y="283" width="22" height="22" rx="3" fill="#475569"/>
  <rect x="113" y="283" width="22" height="22" rx="3" fill="#2563eb"/>
  <rect x="136" y="283" width="22" height="22" rx="3" fill="#2563eb"/>
  <rect x="159" y="283" width="22" height="22" rx="3" fill="#2563eb"/>
  <rect x="182" y="283" width="22" height="22" rx="3" fill="#2563eb"/>
  <rect x="205" y="283" width="22" height="22" rx="3" fill="#2563eb"/>
  <rect x="228" y="283" width="22" height="22" rx="3" fill="#2563eb"/>
  <rect x="251" y="283" width="22" height="22" rx="3" fill="#2563eb"/>
  <rect x="274" y="283" width="22" height="22" rx="3" fill="#2563eb"/>
  <rect x="297" y="283" width="22" height="22" rx="3" fill="#2563eb"/>
  <rect x="320" y="283" width="22" height="22" rx="3" fill="#059669"/>
  <rect x="343" y="283" width="22" height="22" rx="3" fill="#059669"/>
  <rect x="366" y="283" width="22" height="22" rx="3" fill="#059669"/>
  <rect x="389" y="283" width="22" height="22" rx="3" fill="#059669"/>
  <rect x="412" y="283" width="22" height="22" rx="3" fill="#0284c7"/>
  <rect x="435" y="283" width="22" height="22" rx="3" fill="#db2777"/>
  <rect x="90" y="314" width="22" height="22" rx="3" fill="#4338ca"/>
  <rect x="113" y="314" width="22" height="22" rx="3" fill="#4338ca"/>
  <rect x="136" y="314" width="22" height="22" rx="3" fill="#4338ca"/>
  <rect x="159" y="314" width="22" height="22" rx="3" fill="#4338ca"/>
  <rect x="182" y="314" width="22" height="22" rx="3" fill="#4338ca"/>
  <rect x="205" y="314" width="22" height="22" rx="3" fill="#4338ca"/>
  <rect x="228" y="314" width="22" height="22" rx="3" fill="#4338ca"/>
  <rect x="251" y="314" width="22" height="22" rx="3" fill="#4338ca"/>
  <rect x="274" y="314" width="22" height="22" rx="3" fill="#4338ca"/>
  <rect x="297" y="314" width="22" height="22" rx="3" fill="#4338ca"/>
  <rect x="320" y="314" width="22" height="22" rx="3" fill="#4338ca"/>
  <rect x="343" y="314" width="22" height="22" rx="3" fill="#4338ca"/>
  <rect x="366" y="314" width="22" height="22" rx="3" fill="#4338ca"/>
  <rect x="389" y="314" width="22" height="22" rx="3" fill="#4338ca"/>
  <rect x="412" y="314" width="22" height="22" rx="3" fill="#4338ca"/>
  <rect x="90" y="337" width="22" height="22" rx="3" fill="#475569"/>
  <rect x="113" y="337" width="22" height="22" rx="3" fill="#475569"/>
  <rect x="136" y="337" width="22" height="22" rx="3" fill="#475569"/>
  <rect x="159" y="337" width="22" height="22" rx="3" fill="#475569"/>
  <rect x="182" y="337" width="22" height="22" rx="3" fill="#475569"/>
  <rect x="205" y="337" width="22" height="22" rx="3" fill="#475569"/>
  <rect x="228" y="337" width="22" height="22" rx="3" fill="#475569"/>
  <rect x="251" y="337" width="22" height="22" rx="3" fill="#475569"/>
  <rect x="274" y="337" width="22" height="22" rx="3" fill="#475569"/>
  <rect x="297" y="337" width="22" height="22" rx="3" fill="#475569"/>
  <rect x="320" y="337" width="22" height="22" rx="3" fill="#475569"/>
  <rect x="343" y="337" width="22" height="22" rx="3" fill="#475569"/>
  <rect x="366" y="337" width="22" height="22" rx="3" fill="#475569"/>
  <rect x="389" y="337" width="22" height="22" rx="3" fill="#475569"/>
  <rect x="412" y="337" width="22" height="22" rx="3" fill="#475569"/>
  </g>
</svg>