<svg xmlns="http://www.w3.org/2000/svg" viewBox="0 0 500 500" width="500" height="500">
  <defs>
    <clipPath id="circle-clip">
      <circle cx="250" cy="250" r="248"/>
    </clipPath>
  </defs>
  <g clip-path="url(#circle-clip)">
    <!-- App background: slate-50 -->
    <rect width="500" height="500" fill="#f8fafc"/>
    <!-- Background periodic table (semi-opaque, matches PeriodicTable.tsx) -->
  <rect x="8" y="115" width="26" height="26" rx="4" fill="none" stroke="rgba(148,163,184,0.22)" stroke-width="0.8"/>
  <rect x="467" y="115" width="26" height="26" rx="4" fill="none" stroke="rgba(148,163,184,0.22)" stroke-width="0.8"/>
  <rect x="8" y="142" width="26" height="26" rx="4" fill="none" stroke="rgba(148,163,184,0.22)" stroke-width="0.8"/>
  <rect x="35" y="142" width="26" height="26" rx="4" fill="none" stroke="rgba(148,163,184,0.22)" stroke-width="0.8"/>
  <rect x="332" y="142" width="26" height="26" rx="4" fill="none" stroke="rgba(148,163,184,0.22)" stroke-width="0.8"/>
  <rect x="359" y="142" width="26" height="26" rx="4" fill="none" stroke="rgba(148,163,184,0.22)" stroke-width="0.8"/>
  <rect x="386" y="142" width="26" height="26" rx="4" fill="none" stroke="rgba(148,163,184,0.22)" stroke-width="0.8"/>
  <rect x="413" y="142" width="26" height="26" rx="4" fill="none" stroke="rgba(148,163,184,0.22)" stroke-width="0.8"/>
  <rect x="440" y="142" width="26" height="26" rx="4" fill="none" stroke="rgba(148,163,184,0.22)" stroke-width="0.8"/>
  <rect x="467" y="142" width="26" height="26" rx="4" fill="none" stroke="rgba(148,163,184,0.22)" stroke-width="0.8"/>
  <rect x="8" y="169" width="26" height="26" rx="4" fill="none" stroke="rgba(148,163,184,0.22)" stroke-width="0.8"/>
  <rect x="35" y="169" width="26" height="26" rx="4" fill="none" stroke="rgba(148,163,184,0.22)" stroke-width="0.8"/>
  <rect x="332" y="169" width="26" height="26" rx="4" fill="none" stroke="rgba(148,163,184,0.22)" stroke-width="0.8"/>
  <rect x="359" y="169" width="26" height="26" rx="4" fill="none" stroke="rgba(148,163,184,0.22)" stroke-width="0.8"/>
  <rect x="386" y="169" width="26" height="26" rx="4" fill="none" stroke="rgba(148,163,184,0.22)" stroke-width="0.8"/>
  <rect x="413" y="169" width="26" height="26" rx="4" fill="none" stroke="rgba(148,163,184,0.22)" stroke-width="0.8"/>
  <rect x="440" y="169" width="26" height="26" rx="4" fill="none" stroke="rgba(148,163,184,0.22)" stroke-width="0.8"/>
  <rect x="467" y="169" width="26" height="26" rx="4" fill="none" stroke="rgba(148,163,184,0.22)" stroke-width="0.8"/>
  <rect x="8" y="196" width="26" height="26" rx="4" fill="none" stroke="rgba(148,163,184,0.22)" stroke-width="0.8"/>
  <rect x="35" y="196" width="26" height="26" rx="4" fill="none" stroke="rgba(148,163,184,0.22)" stroke-width="0.8"/>
  <rect x="62" y="196" width="26" height="26" rx="4" fill="none" stroke="rgba(148,163,184,0.22)" stroke-width="0.8"/>
  <rect x="89" y="196" width="26" height="26" rx="4" fill="none" stroke="rgba(148,163,184,0.22)" stroke-width="0.8"/>
  <rect x="116" y="196" width="26" height="26" rx="4" fill="none" stroke="rgba(148,163,184,0.22)" stroke-width="0.8"/>
  <rect x="143" y="196" width="26" height="26" rx="4" fill="none" stroke="rgba(148,163,184,0.22)" stroke-width="0.8"/>
  <rect x="170" y="196" width="26" height="26" rx="4" fill="none" stroke="rgba(148,163,184,0.22)" stroke-width="0.8"/>
  <rect x="197" y="196" width="26" height="26" rx="4" fill="none" stroke="rgba(148,163,184,0.22)" stroke-width="0.8"/>
  <rect x="224" y="196" width="26" height="26" rx="4" fill="none" stroke="rgba(148,163,184,0.22)" stroke-width="0.8"/>
  <rect x="251" y="196" width="26" height="26" rx="4" fill="none" stroke="rgba(148,163,184,0.22)" stroke-width="0.8"/>
  <rect x="278" y="196" width="26" height="26" rx="4" fill="none" stroke="rgba(148,163,184,0.22)" stroke-width="0.8"/>
  <rect x="305" y="196" width="26" height="26" rx="4" fill="none" stroke="rgba(148,163,184,0.22)" stroke-width="0.8"/>
  <rect x="332" y="196" width="26" height="26" rx="4" fill="none" stroke="rgba(148,163,184,0.22)" stroke-width="0.8"/>
  <rect x="359" y="196" width="26" height="26" rx="4" fill="none" stroke="rgba(148,163,184,0.22)" stroke-width="0.8"/>
  <rect x="386" y="196" width="26" height="26" rx="4" fill="none" stroke="rgba(148,163,184,0.22)" stroke-width="0.8"/>
  <rect x="413" y="196" width="26" height="26" rx="4" fill="none" stroke="rgba(148,163,184,0.22)" stroke-width="0.8"/>
  <rect x="440" y="196" width="26" height="26" rx="4" fill="none" stroke="rgba(148,163,184,0.22)" stroke-width="0.8"/>
  <rect x="467" y="196" width="26" height="26" rx="4" fill="none" stroke="rgba(148,163,184,0.22)" stroke-width="0.8"/>
  <rect x="8" y="223" width="26" height="26" rx="4" fill="none" stroke="rgba(148,163,184,0.22)" stroke-width="0.8"/>
  <rect x="35" y="223" width="26" height="26" rx="4" fill="none" stroke="rgba(148,163,184,0.22)" stroke-width="0.8"/>
  <rect x="62" y="223" width="26" height="26" rx="4" fill="none" stroke="rgba(148,163,184,0.22)" stroke-width="0.8"/>
  <rect x="89" y="223" width="26" height="26" rx="4" fill="none" stroke="rgba(148,163,184,0.22)" stroke-width="0.8"/>
  <rect x="116" y="223" width="26" height="26" rx="4" fill="none" stroke="rgba(148,163,184,0.22)" stroke-width="0.8"/>
  <rect x="143" y="223" width="26" height="26" rx="4" fill="none" stroke="rgba(148,163,184,0.22)" stroke-width="0.8"/>
  <rect x="170" y="223" width="26" height="26" rx="4" fill="none" stroke="rgba(148,163,184,0.22)" stroke-width="0.8"/>
  <rect x="197" y="223" width="26" height="26" rx="4" fill="none" stroke="rgba(148,163,184,0.22)" stroke-width="0.8"/>
  <rect x="224" y="223" width="26" height="26" rx="4" fill="none" stroke="rgba(148,163,184,0.22)" stroke-width="0.8"/>
  <rect x="251" y="223" width="26" height="26" rx="4" fill="none" stroke="rgba(148,163,184,0.22)" stroke-width="0.8"/>
  <rect x="278" y="223" width="26" height="26" rx="4" fill="none" stroke="rgba(148,163,184,0.22)" stroke-width="0.8"/>
  <rect x="305" y="223" width="26" height="26" rx="4" fill="none" stroke="rgba(148,163,184,0.22)" stroke-width="0.8"/>
  <rect x="332" y="223" width="26" height="26" rx="4" fill="none" stroke="rgba(148,163,184,0.22)" stroke-width="0.8"/>
  <rect x="359" y="223" width="26" height="26" rx="4" fill="none" stroke="rgba(148,163,184,0.22)" stroke-width="0.8"/>
  <rect x="386" y="223" width="26" height="26" rx="4" fill="none" stroke="rgba(148,163,184,0.22)" stroke-width="0.8"/>
  <rect x="413" y="223" width="26" height="26" rx="4" fill="none" stroke="rgba(148,163,184,0.22)" stroke-width="0.8"/>
  <rect x="440" y="223" width="26" height="26" rx="4" fill="none" stroke="rgba(148,163,184,0.22)" stroke-width="0.8"/>
  <rect x="467" y="223" width="26" height="26" rx="4" fill="none" stroke="rgba(148,163,184,0.22)" stroke-width="0.8"/>
  <rect x="8" y="250" width="26" height="26" rx="4" fill="none" stroke="rgba(148,163,184,0.22)" stroke-width="0.8"/>
  <rect x="35" y="250" width="26" height="26" rx="4" fill="none" stroke="rgba(148,163,184,0.22)" stroke-width="0.8"/>
  <rect x="89" y="250" width="26" height="26" rx="4" fill="none" stroke="rgba(148,163,184,0.22)" stroke-width="0.8"/>
  <rect x="116" y="250" width="26" height="26" rx="4" fill="none" stroke="rgba(148,163,184,0.22)" stroke-width="0.8"/>
  <rect x="143" y="250" width="26" height="26" rx="4" fill="none" stroke="rgba(148,163,184,0.22)" stroke-width="0.8"/>
  <rect x="170" y="250" width="26" height="26" rx="4" fill="none" stroke="rgba(148,163,184,0.22)" stroke-width="0.8"/>
  <rect x="197" y="250" width="26" height="26" rx="4" fill="none" stroke="rgba(148,163,184,0.22)" stroke-width="0.8"/>
  <rect x="224" y="250" width="26" height="26" rx="4" fill="none" stroke="rgba(148,163,184,0.22)" stroke-width="0.8"/>
  <rect x="251" y="250" width="26" height="26" rx="4" fill="none" stroke="rgba(148,163,184,0.22)" stroke-width="0.8"/>
  <rect x="278" y="250" width="26" height="26" rx="4" fill="none" stroke="rgba(148,163,184,0.22)" stroke-width="0.8"/>
  <rect x="305" y="250" width="26" height="26" rx="4" fill="none" stroke="rgba(148,163,184,0.22)" stroke-width="0.8"/>
  <rect x="332" y="250" width="26" height="26" rx="4" fill="none" stroke="rgba(148,163,184,0.22)" stroke-width="0.8"/>
  <rect x="359" y="250" width="26" height="26" rx="4" fill="none" stroke="rgba(148,163,184,0.22)" stroke-width="0.8"/>
  <rect x="386" y="250" width="26" height="26" rx="4" fill="none" stroke="rgba(148,163,184,0.22)" stroke-width="0.8"/>
  <rect x="413" y="250" width="26" height="26" rx="4" fill="none" stroke="rgba(148,163,184,0.22)" stroke-width="0.8"/>
  <rect x="440" y="250" width="26" height="26" rx="4" fill="none" stroke="rgba(148,163,184,0.22)" stroke-width="0.8"/>
  <rect x="467" y="250" width="26" height="26" rx="4" fill="none" stroke="rgba(148,163,184,0.22)" stroke-width="0.8"/>
  <rect x="8" y="277" width="26" height="26" rx="4" fill="none" stroke="rgba(148,163,184,0.22)" stroke-width="0.8"/>
  <rect x="35" y="277" width="26" height="26" rx="4" fill="none" stroke="rgba(148,163,184,0.22)" stroke-width="0.8"/>
  <rect x="89" y="277" width="26" height="26" rx="4" fill="none" stroke="rgba(148,163,184,0.22)" stroke-width="0.8"/>
  <rect x="116" y="277" width="26" height="26" rx="4" fill="none" stroke="rgba(148,163,184,0.22)" stroke-width="0.8"/>
  <rect x="143" y="277" width="26" height="26" rx="4" fill="none" stroke="rgba(148,163,184,0.22)" stroke-width="0.8"/>
  <rect x="170" y="277" width="26" height="26" rx="4" fill="none" stroke="rgba(148,163,184,0.22)" stroke-width="0.8"/>
  <rect x="197" y="277" width="26" height="26" rx="4" fill="none" stroke="rgba(148,163,184,0.22)" stroke-width="0.8"/>
  <rect x="224" y="277" width="26" height="26" rx="4" fill="none" stroke="rgba(148,163,184,0.22)" stroke-width="0.8"/>
  <rect x="251" y="277" width="26" height="26" rx="4" fill="none" stroke="rgba(148,163,184,0.22)" stroke-width="0.8"/>
  <rect x="278" y="277" width="26" height="26" rx="4" fill="none" stroke="rgba(148,163,184,0.22)" stroke-width="0.8"/>
  <rect x="305" y="277" width="26" height="26" rx="4" fill="none" stroke="rgba(148,163,184,0.22)" stroke-width="0.8"/>
  <rect x="332" y="277" width="26" height="26" rx="4" fill="none" stroke="rgba(148,163,184,0.22)" stroke-width="0.8"/>
  <rect x="359" y="277" width="26" height="26" rx="4" fill="none" stroke="rgba(148,163,184,0.22)" stroke-width="0.8"/>
  <rect x="386" y="277" width="26" height="26" rx="4" fill="none" stroke="rgba(148,163,184,0.22)" stroke-width="0.8"/>
  <rect x="413" y="277" width="26" height="26" rx="4" fill="none" stroke="rgba(148,163,184,0.22)" stroke-width="0.8"/>
  <rect x="440" y="277" width="26" height="26" rx="4" fill="none" stroke="rgba(148,163,184,0.22)" stroke-width="0.8"/>
  <rect x="467" y="277" width="26" height="26" rx="4" fill="none" stroke="rgba(148,163,184,0.22)" stroke-width="0.8"/>
  <rect x="62" y="313" width="26" height="26" rx="4" fill="none" stroke="rgba(148,163,184,0.22)" stroke-width="0.8"/>
  <rect x="89" y="313" width="26" height="26" rx="4" fill="none" stroke="rgba(148,163,184,0.22)" stroke-width="0.8"/>
  <rect x="116" y="313" width="26" height="26" rx="4" fill="none" stroke="rgba(148,163,184,0.22)" stroke-width="0.8"/>
  <rect x="143" y="313" width="26" height="26" rx="4" fill="none" stroke="rgba(148,163,184,0.22)" stroke-width="0.8"/>
  <rect x="170" y="313" width="26" height="26" rx="4" fill="none" stroke="rgba(148,163,184,0.22)" stroke-width="0.8"/>
  <rect x="197" y="313" width="26" height="26" rx="4" fill="none" stroke="rgba(148,163,184,0.22)" stroke-width="0.8"/>
  <rect x="224" y="313" width="26" height="26" rx="4" fill="none" stroke="rgba(148,163,184,0.22)" stroke-width="0.8"/>
  <rect x="251" y="313" width="26" height="26" rx="4" fill="none" stroke="rgba(148,163,184,0.22)" stroke-width="0.8"/>
  <rect x="278" y="313" width="26" height="26" rx="4" fill="none" stroke="rgba(148,163,184,0.22)" stroke-width="0.8"/>
  <rect x="305" y="313" width="26" height="26" rx="4" fill="none" stroke="rgba(148,163,184,0.22)" stroke-width="0.8"/>
  <rect x="332" y="313" width="26" height="26" rx="4" fill="none" stroke="rgba(148,163,184,0.22)" stroke-width="0.8"/>
  <rect x="359" y="313" width="26" height="26" rx="4" fill="none" stroke="rgba(148,163,184,0.22)" stroke-width="0.8"/>
  <rect x="386" y="313" width="26" height="26" rx="4" fill="none" stroke="rgba(148,163,184,0.22)" stroke-width="0.8"/>
  <rect x="413" y="313" width="26" height="26" rx="4" fill="none" stroke="rgba(148,163,184,0.22)" stroke-width="0.8"/>
  <rect x="440" y="313" width="26" height="26" rx="4" fill="none" stroke="rgba(148,163,184,0.22)" stroke-width="0.8"/>
  <rect x="62" y="340" width="26" height="26" rx="4" fill="none" stroke="rgba(148,163,184,0.22)" stroke-width="0.8"/>
  <rect x="89" y="340" width="26" height="26" rx="4" fill="none" stroke="rgba(148,163,184,0.22)" stroke-width="0.8"/>
  <rect x="116" y="340" width="26" height="26" rx="4" fill="none" stroke="rgba(148,163,184,0.22)" stroke-width="0.8"/>
  <rect x="143" y="340" width="26" height="26" rx="4" fill="none" stroke="rgba(148,163,184,0.22)" stroke-width="0.8"/>
  <rect x="170" y="340" width="26" height="26" rx="4" fill="none" stroke="rgba(148,163,184,0.22)" stroke-width="0.8"/>
  <rect x="197" y="340" width="26" height="26" rx="4" fill="none" stroke="rgba(148,163,184,0.22)" stroke-width="0.8"/>
  <rect x="224" y="340" width="26" height="26" rx="4" fill="none" stroke="rgba(148,163,184,0.22)" stroke-width="0.8"/>
  <rect x="251" y="340" width="26" height="26" rx="4" fill="none" stroke="rgba(148,163,184,0.22)" stroke-width="0.8"/>
  <rect x="278" y="340" width="26" height="26" rx="4" fill="none" stroke="rgba(148,163,184,0.22)" stroke-width="0.8"/>
  <rect x="305" y="340" width="26" height="26" rx="4" fill="none" stroke="rgba(148,163,184,0.22)" stroke-width="0.8"/>
  <rect x="332" y="340" width="26" height="26" rx="4" fill="none" stroke="rgba(148,163,184,0.22)" stroke-width="0.8"/>
  <rect x="359" y="340" width="26" height="26" rx="4" fill="none" stroke="rgba(148,163,184,0.22)" stroke-width="0.8"/>
  <rect x="386" y="340" width="26" height="26" rx="4" fill="none" stroke="rgba(148,163,184,0.22)" stroke-width="0.8"/>
  <rect x="413" y="340" width="26" height="26" rx="4" fill="none" stroke="rgba(148,163,184,0.22)" stroke-width="0.8"/>
  <rect x="440" y="340" width="26" height="26" rx="4" fill="none" stroke="rgba(148,163,184,0.22)" stroke-width="0.8"/>
    <!-- Foreground: Periodic Names tiles (matches Header.tsx) -->
  <rect x="31" y="182" width="60" height="60" rx="5" fill="#e03030" stroke="#111111" stroke-width="2"/>
  <text x="34" y="191" font-family="Nunito,Arial,sans-serif" font-size="7.5" font-weight="400" fill="rgba(255,255,255,0.8)">15</text>
  <text x="61" y="221" font-family="Nunito,Arial,sans-serif" font-size="19" font-weight="900" fill="white" text-anchor="middle">P</text>
  <rect x="94" y="182" width="60" height="60" rx="5" fill="#f97316" stroke="#111111" stroke-width="2"/>
  <text x="97" y="191" font-family="Nunito,Arial,sans-serif" font-size="7.5" font-weight="400" fill="rgba(255,255,255,0.8)">68</text>
  <text x="124" y="221" font-family="Nunito,Arial,sans-serif" font-size="19" font-weight="900" fill="white" text-anchor="middle">Er</text>
  <rect x="157" y="182" width="60" height="60" rx="5" fill="#f59e0b" stroke="#111111" stroke-width="2"/>
  <text x="160" y="191" font-family="Nunito,Arial,sans-serif" font-size="7.5" font-weight="400" fill="rgba(255,255,255,0.8)">53</text>
  <text x="187" y="221" font-family="Nunito,Arial,sans-serif" font-size="19" font-weight="900" fill="white" text-anchor="middle">I</text>
  <rect x="220" y="182" width="60" height="60" rx="5" fill="#16a34a" stroke="#111111" stroke-width="2"/>
  <text x="223" y="191" font-family="Nunito,Arial,sans-serif" font-size="7.5" font-weight="400" fill="rgba(255,255,255,0.8)">8</text>
  <text x="250" y="221" font-family="Nunito,Arial,sans-serif" font-size="19" font-weight="900" fill="white" text-anchor="middle">O</text>
  <rect x="283" y="182" width="60" height="60" rx="5" fill="#0891b2" stroke="#111111" stroke-width="2"/>
  <text x="286" y="191" font-family="Nunito,Arial,sans-serif" font-size="7.5" font-weight="400" fill="rgba(255,255,255,0.8)">829</text>
  <text x="313" y="221" font-family="Nunito,Arial,sans-serif" font-size="19" font-weight="900" fill="white" text-anchor="middle">D</text>
  <rect x="346" y="182" width="60" height="60" rx="5" fill="#7c3aed" stroke="#111111" stroke-width="2"/>
  <text x="349" y="191" font-family="Nunito,Arial,sans-serif" font-size="7.5" font-weight="400" fill="rgba(255,255,255,0.8)">53</text>
  <text x="376" y="221" font-family="Nunito,Arial,sans-serif" font-size="19" font-weight="900" fill="white" text-anchor="middle">I</text>
  <rect x="409" y="182" width="60" height="60" rx="5" fill="#db2477" stroke="#111111" stroke-width="2"/>
  <text x="412" y="191" font-family="Nunito,Arial,sans-serif" font-size="7.5" font-weight="400" fill="rgba(255,255,255,0.8)">6</text>
  <text x="439" y="221" font-family="Nunito,Arial,sans-serif" font-size="19" font-weight="900" fill="white" text-anchor="middle">C</text>
  <rect x="157" y="250" width="60" height="60" rx="5" fill="#e03030" stroke="#111111" stroke-width="2"/>
  <text x="160" y="259" font-family="Nunito,Arial,sans-serif" font-size="7.5" font-weight="400" fill="rgba(255,255,255,0.8)">7</text>
  <text x="187" y="289" font-family="Nunito,Arial,sans-serif" font-size="19" font-weight="900" fill="white" text-anchor="middle">N</text>
  <rect x="220" y="250" width="60" height="60" rx="5" fill="#f97316" stroke="#111111" stroke-width="2"/>
  <text x="223" y="259" font-family="Nunito,Arial,sans-serif" font-size="7.5" font-weight="400" fill="rgba(255,255,255,0.8)">95</text>
  <text x="250" y="289" font-family="Nunito,Arial,sans-serif" font-size="19" font-weight="900" fill="white" text-anchor="middle">Am</text>
  <rect x="283" y="250" width="60" height="60" rx="5" fill="#f59e0b" stroke="#111111" stroke-width="2"/>
  <text x="286" y="259" font-family="Nunito,Arial,sans-serif" font-size="7.5" font-weight="400" fill="rgba(255,255,255,0.8)">99</text>
  <text x="313" y="289" font-family="Nunito,Arial,sans-serif" font-size="19" font-weight="900" fill="white" text-anchor="middle">Es</text>
  </g>
</svg>